# xmcd CD database file
#
# Track frame offsets:
#	150
#	16257
#	46368
#	68764
#	90890
#	116648
#	142482
#	165507
#	184876
#	202059
#	203873
#	220169
#	238980
#	253296
#
# Disc length: 3548 seconds
#
# Revision: 0
# Processed by: cddbd v1.5.2PL0 Copyright (c) Steve Scherf et al.
# Submitted via: CDex 1.50
#
DISCID=d50dda0e
DTITLE=Zed+ - Los Pinguinos
DYEAR=2001
DGENRE=Jazz
TTITLE0=Prends-le facile
TTITLE1=Humphrey
TTITLE2=I swear
TTITLE3=Felicia
TTITLE4=De qui tu parles
TTITLE5=Babe
TTITLE6=Eleven
TTITLE7=Los pinguinos
TTITLE8=Que te pedi
TTITLE9=Spécial rab
TTITLE10=Impro
TTITLE11=Choses (instrumental)
TTITLE12=Fred
TTITLE13=Tous des pinguins
EXTD=YEAR: 2001
EXTT0=
EXTT1=
EXTT2=
EXTT3=
EXTT4=
EXTT5=
EXTT6=
EXTT7=
EXTT8=
EXTT9=
EXTT10=
EXTT11=
EXTT12=
EXTT13=
PLAYORDER=
